<svg xmlns="http://www.w3.org/2000/svg" xmlns:xlink="http://www.w3.org/1999/xlink" width="571" zoomAndPan="magnify" viewBox="0 0 428.25 380.999991" height="508" preserveAspectRatio="xMidYMid meet" version="1.2"><defs><clipPath id="c267921594"><path d="M 0 0.332031 L 427.5 0.332031 L 427.5 380.664062 L 0 380.664062 Z M 0 0.332031 "/></clipPath><clipPath id="24a7824eea"><path d="M 241 80 L 288.328125 80 L 288.328125 127 L 241 127 Z M 241 80 "/></clipPath></defs><g id="3520f0b697"><g clip-rule="nonzero" clip-path="url(#c267921594)"><path style=" stroke:none;fill-rule:nonzero;fill:#ffffff;fill-opacity:1;" d="M 0 0.332031 L 427.5 0.332031 L 427.5 380.667969 L 0 380.667969 Z M 0 0.332031 "/><path style=" stroke:none;fill-rule:nonzero;fill:#ffffff;fill-opacity:1;" d="M 0 0.332031 L 427.5 0.332031 L 427.5 380.667969 L 0 380.667969 Z M 0 0.332031 "/></g><path style=" stroke:none;fill-rule:nonzero;fill:#dac0b7;fill-opacity:1;" d="M 262.648438 321.851562 L 237.136719 295.671875 C 234.238281 293.4375 233.273438 287.050781 236.660156 285.65625 L 267.167969 273.128906 C 270.554688 271.742188 274.28125 276.996094 273.792969 280.621094 L 274.171875 317.097656 L 262.648438 321.851562 "/><path style="fill:none;stroke-width:40;stroke-linecap:round;stroke-linejoin:round;stroke:#000000;stroke-opacity:1;stroke-miterlimit:10;" d="M 2522.214327 1046.809213 L 2312.7974 1262.114717 C 2289.005124 1280.490538 2281.085053 1333.015829 2308.885463 1344.484654 L 2559.313605 1447.511325 C 2587.114014 1458.915899 2617.704084 1415.707021 2613.695951 1385.894501 L 2616.806262 1085.90602 Z M 2522.214327 1046.809213 " transform="matrix(0.121823,0,0,-0.121593,-44.614321,449.136455)"/><path style=" stroke:none;fill-rule:nonzero;fill:#000000;fill-opacity:1;" d="M 274.148438 316.441406 L 274.207031 324.878906 C 273.707031 328.441406 270.96875 329.5625 268.105469 327.386719 L 262.207031 321.378906 L 274.148438 316.441406 "/><path style="fill:none;stroke-width:40;stroke-linecap:round;stroke-linejoin:round;stroke:#000000;stroke-opacity:1;stroke-miterlimit:10;" d="M 2616.613872 1091.303114 L 2617.094848 1021.911904 C 2612.99052 992.613393 2590.512911 983.361231 2567.00922 1001.287294 L 2518.590975 1050.696406 Z M 2616.613872 1091.303114 " transform="matrix(0.121823,0,0,-0.121593,-44.614321,449.136455)"/><path style=" stroke:none;fill-rule:nonzero;fill:#ef2e68;fill-opacity:1;" d="M 143.261719 72.039062 C 142.117188 69.292969 143.429688 66.140625 146.171875 65.011719 L 174.835938 53.167969 C 177.589844 52.035156 180.746094 53.335938 181.878906 56.085938 L 191.964844 80.394531 C 193.097656 83.140625 191.792969 86.289062 189.042969 87.433594 L 160.375 99.265625 C 157.625 100.394531 154.480469 99.09375 153.335938 96.347656 L 143.261719 72.039062 "/><path style=" stroke:none;fill-rule:nonzero;fill:#000000;fill-opacity:1;" d="M 182.730469 64.492188 L 183.195312 65.617188 C 183.320312 65.914062 183.496094 66.175781 183.722656 66.40625 C 183.953125 66.632812 184.214844 66.808594 184.515625 66.933594 C 184.8125 67.054688 185.125 67.117188 185.445312 67.117188 C 185.769531 67.117188 186.082031 67.054688 186.378906 66.933594 C 186.675781 66.808594 186.941406 66.632812 187.167969 66.40625 C 187.398438 66.175781 187.574219 65.914062 187.699219 65.617188 C 187.820312 65.316406 187.882812 65.007812 187.882812 64.6875 C 187.882812 64.363281 187.820312 64.054688 187.699219 63.753906 L 187.230469 62.632812 C 187.109375 62.332031 186.933594 62.070312 186.703125 61.84375 C 186.476562 61.613281 186.210938 61.4375 185.914062 61.316406 C 185.613281 61.191406 185.304688 61.128906 184.980469 61.128906 C 184.65625 61.128906 184.347656 61.191406 184.046875 61.316406 C 183.75 61.4375 183.484375 61.613281 183.257812 61.84375 C 183.03125 62.070312 182.851562 62.332031 182.730469 62.632812 C 182.605469 62.929688 182.542969 63.238281 182.542969 63.5625 C 182.542969 63.882812 182.605469 64.195312 182.730469 64.492188 Z M 185.527344 71.234375 L 189.714844 81.324219 C 190.023438 82.074219 190.023438 82.828125 189.710938 83.585938 C 189.394531 84.339844 188.863281 84.875 188.105469 85.1875 L 161.011719 96.371094 C 160.714844 96.492188 160.449219 96.667969 160.222656 96.898438 C 159.992188 97.125 159.816406 97.386719 159.695312 97.683594 C 159.570312 97.984375 159.507812 98.292969 159.507812 98.617188 C 159.507812 98.9375 159.570312 99.25 159.691406 99.546875 C 159.816406 99.84375 159.992188 100.109375 160.21875 100.335938 C 160.449219 100.5625 160.710938 100.738281 161.011719 100.863281 C 161.308594 100.988281 161.621094 101.046875 161.941406 101.050781 C 162.265625 101.050781 162.578125 100.988281 162.875 100.863281 L 189.976562 89.679688 C 191.972656 88.851562 193.382812 87.4375 194.210938 85.445312 C 195.039062 83.453125 195.039062 81.460938 194.214844 79.460938 L 190.027344 69.371094 C 189.90625 69.074219 189.730469 68.8125 189.5 68.582031 C 189.273438 68.355469 189.007812 68.179688 188.710938 68.054688 C 188.410156 67.933594 188.101562 67.871094 187.777344 67.871094 C 187.453125 67.871094 187.144531 67.933594 186.84375 68.054688 C 186.546875 68.179688 186.285156 68.355469 186.054688 68.582031 C 185.828125 68.8125 185.652344 69.074219 185.527344 69.371094 C 185.402344 69.667969 185.339844 69.980469 185.339844 70.300781 C 185.339844 70.625 185.402344 70.933594 185.527344 71.234375 Z M 156.527344 96.636719 C 156.347656 96.5 156.1875 96.347656 156.046875 96.175781 C 155.839844 95.929688 155.59375 95.730469 155.308594 95.578125 C 155.023438 95.429688 154.71875 95.339844 154.394531 95.308594 C 154.074219 95.28125 153.757812 95.3125 153.449219 95.410156 C 153.140625 95.503906 152.863281 95.65625 152.617188 95.863281 C 152.367188 96.070312 152.167969 96.316406 152.015625 96.601562 C 151.867188 96.886719 151.777344 97.1875 151.746094 97.511719 C 151.71875 97.832031 151.75 98.144531 151.847656 98.453125 C 151.941406 98.761719 152.09375 99.039062 152.300781 99.289062 C 152.679688 99.742188 153.105469 100.148438 153.578125 100.507812 C 153.835938 100.703125 154.121094 100.839844 154.433594 100.921875 C 154.746094 101.003906 155.0625 101.023438 155.382812 100.980469 C 155.699219 100.9375 156 100.832031 156.28125 100.671875 C 156.558594 100.507812 156.796875 100.300781 156.992188 100.042969 C 157.1875 99.785156 157.324219 99.5 157.410156 99.191406 C 157.492188 98.878906 157.511719 98.5625 157.464844 98.242188 C 157.421875 97.921875 157.320312 97.625 157.15625 97.34375 C 156.992188 97.066406 156.785156 96.832031 156.527344 96.636719 Z M 153.878906 91.292969 L 145.511719 71.109375 C 145.199219 70.355469 145.195312 69.601562 145.507812 68.851562 C 145.820312 68.097656 146.351562 67.566406 147.101562 67.257812 L 175.769531 55.414062 C 176.523438 55.105469 177.277344 55.105469 178.03125 55.417969 C 178.785156 55.730469 179.316406 56.261719 179.625 57.011719 L 179.933594 57.753906 C 180.054688 58.050781 180.230469 58.3125 180.460938 58.542969 C 180.6875 58.769531 180.953125 58.945312 181.25 59.070312 C 181.550781 59.191406 181.859375 59.253906 182.183594 59.253906 C 182.507812 59.253906 182.816406 59.191406 183.117188 59.070312 C 183.414062 58.945312 183.679688 58.769531 183.90625 58.542969 C 184.132812 58.3125 184.3125 58.050781 184.433594 57.753906 C 184.558594 57.453125 184.621094 57.144531 184.621094 56.820312 C 184.621094 56.5 184.558594 56.1875 184.433594 55.890625 L 184.132812 55.160156 C 183.308594 53.164062 181.898438 51.753906 179.898438 50.925781 C 177.902344 50.101562 175.90625 50.097656 173.90625 50.921875 L 145.242188 62.765625 C 143.246094 63.585938 141.835938 64.996094 141.007812 66.988281 C 140.179688 68.984375 140.179688 70.976562 141.007812 72.96875 L 149.375 93.152344 C 149.5 93.453125 149.675781 93.714844 149.902344 93.941406 C 150.132812 94.171875 150.394531 94.347656 150.695312 94.472656 C 150.992188 94.59375 151.304688 94.65625 151.625 94.65625 C 151.949219 94.65625 152.261719 94.59375 152.558594 94.472656 C 152.855469 94.347656 153.121094 94.171875 153.347656 93.945312 C 153.578125 93.714844 153.753906 93.453125 153.878906 93.15625 C 154 92.859375 154.0625 92.546875 154.0625 92.226562 C 154.0625 91.902344 154 91.59375 153.878906 91.292969 Z M 153.878906 91.292969 "/><path style=" stroke:none;fill-rule:nonzero;fill:#ee8f42;fill-opacity:1;" d="M 235.785156 294.25 C 235.75 294.191406 235.527344 293.824219 235.503906 293.765625 L 162.117188 117.066406 C 160.984375 114.339844 162.289062 111.214844 165.019531 110.085938 L 193.453125 98.339844 C 196.179688 97.210938 199.3125 98.511719 200.445312 101.246094 L 273.671875 278.296875 C 273.695312 278.371094 273.804688 279.015625 273.816406 279.078125 L 267.847656 274.867188 L 266.53125 281.980469 L 258.601562 277.800781 L 256.386719 286.03125 L 248.746094 281.191406 L 245.6875 290.300781 L 238.417969 285.582031 L 235.785156 294.25 "/><path style=" stroke:none;fill-rule:nonzero;fill:#000000;fill-opacity:1;" d="M 257.777344 246.238281 L 258.242188 247.363281 C 258.363281 247.660156 258.539062 247.921875 258.769531 248.152344 C 258.996094 248.378906 259.257812 248.554688 259.558594 248.679688 C 259.855469 248.804688 260.167969 248.863281 260.488281 248.867188 C 260.8125 248.867188 261.125 248.804688 261.421875 248.679688 C 261.722656 248.558594 261.984375 248.382812 262.214844 248.15625 C 262.441406 247.925781 262.617188 247.664062 262.742188 247.367188 C 262.867188 247.070312 262.929688 246.757812 262.929688 246.4375 C 262.929688 246.113281 262.867188 245.804688 262.746094 245.503906 L 262.28125 244.382812 C 262.15625 244.082031 261.980469 243.820312 261.753906 243.59375 C 261.523438 243.363281 261.261719 243.1875 260.960938 243.0625 C 260.664062 242.941406 260.355469 242.878906 260.03125 242.878906 C 259.707031 242.878906 259.398438 242.9375 259.097656 243.0625 C 258.800781 243.183594 258.535156 243.359375 258.308594 243.589844 C 258.078125 243.816406 257.902344 244.078125 257.777344 244.375 C 257.652344 244.675781 257.589844 244.984375 257.589844 245.308594 C 257.589844 245.628906 257.652344 245.941406 257.777344 246.238281 Z M 260.566406 252.980469 L 271.417969 279.226562 L 273.671875 278.296875 L 271.359375 279.066406 C 271.332031 278.984375 271.316406 278.921875 271.304688 278.871094 C 271.308594 278.898438 271.316406 278.941406 271.328125 278.996094 C 271.34375 279.074219 271.363281 279.191406 271.390625 279.351562 C 271.410156 279.457031 271.421875 279.523438 271.429688 279.550781 L 273.816406 279.078125 L 275.222656 277.089844 L 269.253906 272.882812 C 268.988281 272.695312 268.699219 272.566406 268.386719 272.496094 C 268.070312 272.425781 267.753906 272.417969 267.433594 272.472656 C 267.117188 272.527344 266.820312 272.640625 266.546875 272.8125 C 266.273438 272.984375 266.042969 273.203125 265.859375 273.464844 C 265.652344 273.757812 265.515625 274.078125 265.453125 274.425781 L 264.136719 281.539062 L 266.53125 281.980469 L 267.671875 279.832031 L 259.742188 275.648438 C 259.453125 275.5 259.152344 275.410156 258.828125 275.378906 C 258.507812 275.347656 258.191406 275.378906 257.882812 275.476562 C 257.574219 275.570312 257.296875 275.722656 257.046875 275.925781 C 256.796875 276.132812 256.597656 276.378906 256.449219 276.664062 C 256.363281 276.824219 256.296875 276.992188 256.25 277.167969 L 254.03125 285.398438 L 256.386719 286.03125 L 257.691406 283.976562 L 250.050781 279.140625 C 249.78125 278.964844 249.484375 278.851562 249.164062 278.796875 C 248.847656 278.742188 248.53125 278.75 248.214844 278.820312 C 247.898438 278.890625 247.609375 279.015625 247.347656 279.203125 C 247.082031 279.386719 246.863281 279.617188 246.691406 279.886719 C 246.582031 280.054688 246.5 280.230469 246.4375 280.417969 L 243.378906 289.527344 L 245.6875 290.300781 L 247.015625 288.261719 L 239.742188 283.542969 C 239.472656 283.367188 239.179688 283.25 238.859375 283.191406 C 238.542969 283.132812 238.226562 283.136719 237.910156 283.203125 C 237.59375 283.269531 237.304688 283.394531 237.035156 283.578125 C 236.769531 283.757812 236.550781 283.984375 236.375 284.257812 C 236.246094 284.449219 236.152344 284.65625 236.085938 284.875 L 233.453125 293.546875 L 235.785156 294.25 L 237.875 293 C 237.824219 292.917969 237.78125 292.84375 237.742188 292.777344 C 237.714844 292.730469 237.691406 292.695312 237.679688 292.667969 C 237.707031 292.726562 237.738281 292.789062 237.765625 292.863281 L 164.371094 116.132812 C 164.0625 115.394531 164.0625 114.652344 164.371094 113.910156 C 164.679688 113.167969 165.207031 112.640625 165.953125 112.332031 L 194.382812 100.585938 C 195.125 100.28125 195.867188 100.28125 196.609375 100.589844 C 197.355469 100.898438 197.882812 101.425781 198.191406 102.175781 L 254.988281 239.492188 C 255.109375 239.792969 255.285156 240.054688 255.515625 240.285156 C 255.742188 240.511719 256.003906 240.6875 256.304688 240.8125 C 256.601562 240.933594 256.914062 240.996094 257.234375 240.996094 C 257.558594 241 257.871094 240.9375 258.167969 240.8125 C 258.46875 240.691406 258.730469 240.515625 258.960938 240.289062 C 259.1875 240.058594 259.363281 239.796875 259.488281 239.5 C 259.613281 239.203125 259.675781 238.890625 259.675781 238.570312 C 259.675781 238.246094 259.613281 237.9375 259.492188 237.636719 L 202.695312 100.316406 C 201.871094 98.328125 200.46875 96.921875 198.484375 96.097656 C 196.492188 95.269531 194.507812 95.269531 192.519531 96.09375 L 164.082031 107.839844 C 162.097656 108.664062 160.695312 110.066406 159.871094 112.046875 C 159.042969 114.03125 159.042969 116.015625 159.867188 117.996094 L 233.242188 294.667969 C 233.308594 294.828125 233.457031 295.105469 233.695312 295.503906 C 234.019531 296.039062 234.480469 296.398438 235.078125 296.578125 C 235.386719 296.671875 235.703125 296.703125 236.023438 296.671875 C 236.347656 296.640625 236.648438 296.546875 236.933594 296.394531 C 237.21875 296.242188 237.464844 296.042969 237.667969 295.792969 C 237.875 295.542969 238.023438 295.265625 238.117188 294.957031 L 240.746094 286.285156 L 238.417969 285.582031 L 237.089844 287.621094 L 244.359375 292.339844 C 244.535156 292.449219 244.71875 292.539062 244.914062 292.605469 C 245.222656 292.707031 245.535156 292.746094 245.859375 292.726562 C 246.179688 292.703125 246.484375 292.621094 246.773438 292.476562 C 247.0625 292.332031 247.316406 292.140625 247.527344 291.894531 C 247.738281 291.652344 247.894531 291.378906 248 291.070312 L 251.058594 281.964844 L 248.746094 281.191406 L 247.441406 283.246094 L 255.078125 288.085938 C 255.289062 288.21875 255.511719 288.316406 255.753906 288.378906 C 256.0625 288.464844 256.378906 288.484375 256.699219 288.441406 C 257.019531 288.402344 257.320312 288.300781 257.601562 288.136719 C 257.882812 287.976562 258.121094 287.769531 258.316406 287.511719 C 258.511719 287.257812 258.652344 286.972656 258.738281 286.664062 L 260.953125 278.429688 L 258.601562 277.800781 L 257.464844 279.949219 L 265.394531 284.132812 C 265.613281 284.25 265.847656 284.328125 266.089844 284.375 C 266.40625 284.433594 266.726562 284.429688 267.042969 284.359375 C 267.355469 284.292969 267.648438 284.167969 267.914062 283.984375 C 268.179688 283.800781 268.402344 283.574219 268.578125 283.304688 C 268.753906 283.035156 268.871094 282.742188 268.929688 282.421875 L 270.246094 275.3125 L 267.847656 274.867188 L 266.441406 276.855469 L 272.414062 281.0625 C 272.984375 281.464844 273.609375 281.597656 274.296875 281.460938 C 274.613281 281.398438 274.90625 281.277344 275.171875 281.097656 C 275.441406 280.917969 275.664062 280.695312 275.84375 280.425781 C 276.023438 280.15625 276.144531 279.863281 276.207031 279.546875 C 276.269531 279.234375 276.269531 278.917969 276.207031 278.601562 L 276.207031 278.597656 C 276.203125 278.574219 276.199219 278.542969 276.191406 278.507812 C 276.101562 278.003906 276.03125 277.679688 275.984375 277.527344 C 275.964844 277.476562 275.945312 277.421875 275.921875 277.371094 L 265.070312 251.125 C 264.945312 250.828125 264.769531 250.5625 264.542969 250.335938 C 264.3125 250.105469 264.050781 249.929688 263.753906 249.808594 C 263.453125 249.683594 263.144531 249.621094 262.820312 249.621094 C 262.496094 249.621094 262.1875 249.683594 261.886719 249.804688 C 261.589844 249.929688 261.324219 250.105469 261.097656 250.332031 C 260.867188 250.558594 260.691406 250.820312 260.566406 251.121094 C 260.441406 251.417969 260.378906 251.726562 260.378906 252.050781 C 260.378906 252.371094 260.441406 252.683594 260.566406 252.980469 Z M 260.566406 252.980469 "/><path style=" stroke:none;fill-rule:nonzero;fill:#918f8f;fill-opacity:1;" d="M 162.765625 119.058594 C 162.726562 118.988281 162.691406 118.914062 162.65625 118.828125 L 152.578125 94.523438 L 191.199219 78.570312 L 201.285156 102.886719 C 201.308594 102.960938 201.332031 103.046875 201.359375 103.117188 L 162.765625 119.058594 "/><path style="fill:none;stroke-width:40;stroke-linecap:round;stroke-linejoin:round;stroke:#000000;stroke-opacity:1;stroke-miterlimit:10;" d="M 1702.310666 2714.607672 C 1701.990015 2715.185932 1701.70143 2715.796317 1701.412844 2716.50308 L 1618.684982 2916.388315 L 1935.71226 3047.589103 L 2018.504252 2847.607491 C 2018.696643 2846.997105 2018.889033 2846.290343 2019.113488 2845.712083 Z M 1702.310666 2714.607672 " transform="matrix(0.121823,0,0,-0.121593,-44.614321,449.136455)"/><path style=" stroke:none;fill-rule:nonzero;fill:#000000;fill-opacity:1;" d="M 181.367188 132.398438 L 235.675781 264.519531 "/><path style=" stroke:none;fill-rule:nonzero;fill:#000000;fill-opacity:1;" d="M 181.367188 132.398438 C 181.367188 132.398438 181.621094 132.898438 182.109375 133.832031 C 182.574219 134.769531 183.304688 136.132812 184.15625 137.894531 C 185.886719 141.394531 188.335938 146.429688 191.148438 152.511719 C 192.5625 155.550781 194.097656 158.84375 195.644531 162.347656 C 197.214844 165.859375 198.898438 169.546875 200.53125 173.386719 C 202.1875 177.242188 203.953125 181.179688 205.632812 185.242188 C 207.328125 189.304688 209.058594 193.414062 210.773438 197.535156 C 212.457031 201.667969 214.125 205.816406 215.769531 209.890625 C 217.4375 213.964844 218.949219 218.011719 220.484375 221.902344 C 222.019531 225.792969 223.417969 229.601562 224.761719 233.1875 C 226.125 236.773438 227.355469 240.191406 228.488281 243.351562 C 230.765625 249.652344 232.554688 254.953125 233.800781 258.660156 C 235.03125 262.382812 235.675781 264.519531 235.675781 264.519531 C 235.675781 264.519531 234.640625 262.539062 232.898438 259.039062 C 231.15625 255.523438 228.707031 250.5 225.894531 244.410156 C 224.480469 241.371094 222.957031 238.074219 221.398438 234.5625 C 219.824219 231.070312 218.15625 227.375 216.511719 223.53125 C 214.867188 219.679688 213.089844 215.738281 211.40625 211.675781 C 209.714844 207.617188 207.996094 203.507812 206.28125 199.382812 C 204.597656 195.238281 202.929688 191.101562 201.285156 187.03125 C 199.628906 182.957031 198.105469 178.90625 196.570312 175.015625 C 195.035156 171.113281 193.632812 167.320312 192.292969 163.71875 C 190.929688 160.132812 189.699219 156.71875 188.566406 153.566406 C 186.289062 147.269531 184.496094 141.96875 183.253906 138.257812 C 182.632812 136.398438 182.183594 134.925781 181.867188 133.929688 C 181.539062 132.921875 181.367188 132.398438 181.367188 132.398438 "/><path style=" stroke:none;fill-rule:nonzero;fill:#000000;fill-opacity:1;" d="M 195.828125 124.566406 L 250.136719 256.691406 "/><path style=" stroke:none;fill-rule:nonzero;fill:#000000;fill-opacity:1;" d="M 195.828125 124.566406 C 195.828125 124.566406 196.082031 125.066406 196.558594 126.003906 C 197.03125 126.9375 197.75 128.300781 198.605469 130.0625 C 200.347656 133.566406 202.796875 138.597656 205.597656 144.679688 C 207.011719 147.71875 208.546875 151.015625 210.105469 154.527344 C 211.664062 158.03125 213.34375 161.714844 214.988281 165.558594 C 216.632812 169.410156 218.414062 173.351562 220.09375 177.410156 C 221.789062 181.472656 223.503906 185.582031 225.234375 189.707031 C 226.902344 193.851562 228.574219 197.984375 230.21875 202.058594 C 231.886719 206.121094 233.398438 210.179688 234.933594 214.074219 C 236.46875 217.976562 237.878906 221.769531 239.21875 225.355469 C 240.585938 228.941406 241.816406 232.371094 242.949219 235.523438 C 245.226562 241.820312 247.015625 247.121094 248.246094 250.828125 C 249.476562 254.550781 250.136719 256.691406 250.136719 256.691406 C 250.136719 256.691406 249.085938 254.707031 247.347656 251.195312 C 245.617188 247.691406 243.167969 242.660156 240.351562 236.578125 C 238.941406 233.539062 237.40625 230.246094 235.859375 226.742188 C 234.285156 223.242188 232.617188 219.542969 230.960938 215.703125 C 229.316406 211.847656 227.539062 207.90625 225.867188 203.847656 C 224.175781 199.785156 222.445312 195.675781 220.726562 191.554688 C 219.058594 187.40625 217.390625 183.273438 215.746094 179.199219 C 214.074219 175.125 212.566406 171.078125 211.03125 167.1875 C 209.496094 163.28125 208.09375 159.488281 206.742188 155.902344 C 205.378906 152.316406 204.160156 148.886719 203.027344 145.738281 C 200.75 139.4375 198.945312 134.136719 197.714844 130.429688 C 197.082031 128.566406 196.644531 127.097656 196.3125 126.101562 C 195.996094 125.089844 195.828125 124.566406 195.828125 124.566406 "/><path style=" stroke:none;fill-rule:nonzero;fill:#ffffff;fill-opacity:1;" d="M 285.914062 103.75 C 267.789062 105.246094 266.570312 106.472656 265.058594 124.566406 C 263.546875 106.472656 262.328125 105.246094 244.214844 103.75 C 262.328125 102.242188 263.546875 101.027344 265.058594 82.933594 C 266.570312 101.027344 267.789062 102.242188 285.914062 103.75 "/><g clip-rule="nonzero" clip-path="url(#24a7824eea)"><path style="fill:none;stroke-width:38.945999;stroke-linecap:round;stroke-linejoin:round;stroke:#000000;stroke-opacity:1;stroke-miterlimit:10;" d="M 2713.193842 2840.507742 C 2564.41195 2828.203653 2554.40765 2818.084101 2541.99847 2669.310632 C 2529.589291 2818.084101 2519.584991 2828.203653 2370.899294 2840.507742 C 2519.584991 2852.908208 2529.589291 2862.899258 2541.99847 3011.704853 C 2554.40765 2862.899258 2564.41195 2852.908208 2713.193842 2840.507742 Z M 2713.193842 2840.507742 " transform="matrix(0.121823,0,0,-0.121593,-44.614321,449.136455)"/></g><path style=" stroke:none;fill-rule:nonzero;fill:#ffffff;fill-opacity:1;" d="M 202.222656 256.703125 C 184.09375 258.199219 182.878906 259.414062 181.367188 277.507812 C 179.867188 259.414062 178.648438 258.199219 160.523438 256.703125 C 178.648438 255.195312 179.867188 253.980469 181.367188 235.886719 C 182.878906 253.980469 184.09375 255.195312 202.222656 256.703125 "/><path style="fill:none;stroke-width:38.945999;stroke-linecap:round;stroke-linejoin:round;stroke:#000000;stroke-opacity:1;stroke-miterlimit:10;" d="M 2026.199867 1582.599306 C 1877.38591 1570.295217 1867.413675 1560.304167 1855.004496 1411.498572 C 1842.691512 1560.304167 1832.687212 1570.295217 1683.90532 1582.599306 C 1832.687212 1594.999772 1842.691512 1604.990822 1855.004496 1753.796417 C 1867.413675 1604.990822 1877.38591 1594.999772 2026.199867 1582.599306 Z M 2026.199867 1582.599306 " transform="matrix(0.121823,0,0,-0.121593,-44.614321,449.136455)"/></g></svg>